<svg width="402" height="298" viewBox="0 0 402 298" fill="none" xmlns="http://www.w3.org/2000/svg">
  <rect width="402" height="298" fill="#F5F5F5"/>
  <rect y="74" width="402" height="10" rx="5" fill="#E5E5E5"/>
  <rect y="170" width="402" height="10" rx="5" fill="#E5E5E5"/>
  <rect x="82" width="10" height="298" rx="5" fill="#E5E5E5"/>
  <rect x="238" width="10" height="298" rx="5" fill="#E5E5E5"/>
  <rect x="330" width="10" height="298" rx="5" fill="#E5E5E5"/>
  <g fill="#FFFFFF" stroke="#D6D6D6">
    <rect x="18" y="28" width="64" height="30" rx="8"/>
    <rect x="108" y="22" width="58" height="28" rx="8"/>
    <rect x="260" y="34" width="74" height="30" rx="8"/>
    <rect x="344" y="20" width="38" height="34" rx="8"/>
    <rect x="22" y="116" width="58" height="30" rx="8"/>
    <rect x="114" y="122" width="52" height="26" rx="8"/>
    <rect x="258" y="112" width="48" height="30" rx="8"/>
    <rect x="342" y="126" width="38" height="28" rx="8"/>
    <rect x="18" y="214" width="52" height="28" rx="8"/>
    <rect x="102" y="224" width="58" height="28" rx="8"/>
    <rect x="230" y="216" width="54" height="30" rx="8"/>
    <rect x="312" y="220" width="50" height="28" rx="8"/>
  </g>
  <path d="M87 280V144H335" stroke="#0057A8" stroke-width="6" stroke-linecap="round" stroke-linejoin="round"/>
  <circle cx="87" cy="280" r="8" fill="#1F1F1F"/>
  <circle cx="335" cy="148" r="8" fill="#1F1F1F"/>
</svg>
