<svg width="320" height="392" viewBox="0 0 320 392" fill="none" xmlns="http://www.w3.org/2000/svg">
  <rect x="26" y="70" width="268" height="170" rx="34" fill="#ECECEC"/>
  <circle cx="88" cy="236" r="34" fill="#F8F8F8" stroke="#6E6E6E" stroke-width="4"/>
  <circle cx="232" cy="236" r="34" fill="#F8F8F8" stroke="#6E6E6E" stroke-width="4"/>
  <path d="M105 238L146 170H190L215 238H180L157 200L134 238H105Z" fill="#F3F3F3" stroke="#6E6E6E" stroke-width="4" stroke-linejoin="round"/>
  <path d="M142 170L118 170C111.373 170 106 164.627 106 158V148" stroke="#6E6E6E" stroke-width="4" stroke-linecap="round"/>
  <path d="M196 170L216 148" stroke="#6E6E6E" stroke-width="4" stroke-linecap="round"/>
  <path d="M205 147H231" stroke="#6E6E6E" stroke-width="4" stroke-linecap="round"/>
  <rect x="98" y="142" width="18" height="14" rx="7" fill="#9C9C9C"/>
  <rect x="182" y="136" width="22" height="12" rx="6" fill="#9C9C9C"/>
  <rect x="148" y="154" width="52" height="22" rx="11" fill="#B7B7B7"/>
  <rect x="186" y="110" width="38" height="34" rx="8" fill="#FFFFFF" stroke="#1F1F1F" stroke-width="4"/>
  <rect x="195" y="119" width="8" height="8" rx="2" fill="#1F1F1F"/>
  <rect x="206" y="119" width="8" height="8" rx="2" fill="#1F1F1F"/>
  <rect x="195" y="130" width="8" height="8" rx="2" fill="#1F1F1F"/>
  <circle cx="205" cy="127" r="38" stroke="#111111" stroke-width="4" stroke-dasharray="7 9"/>
  <path d="M205 89V54" stroke="#111111" stroke-width="4" stroke-linecap="round"/>
  <path d="M205 54L194 65" stroke="#111111" stroke-width="4" stroke-linecap="round"/>
  <path d="M205 54L216 65" stroke="#111111" stroke-width="4" stroke-linecap="round"/>
</svg>
